Coordinates
version=1
nRows=16
nColumns=36
inDegrees=yes

Units are S.I. units (second, meters, Newtons, ...)
If the header above contains a line with 'inDegrees', this indicates whether rotational values are in degrees (yes) or radians (no).

endheader
time	pelvis_tilt	pelvis_list	pelvis_rotation	pelvis_tx	pelvis_ty	pelvis_tz	hip_flexion_r	hip_adduction_r	hip_rotation_r	knee_angle_r	knee_angle_r_beta	ankle_angle_r	subtalar_angle_r	mtp_angle_r	hip_flexion_l	hip_adduction_l	hip_rotation_l	knee_angle_l	knee_angle_l_beta	ankle_angle_l	subtalar_angle_l	mtp_angle_l	lumbar_extension	lumbar_bending	lumbar_rotation	arm_flex_r	arm_add_r	arm_rot_r	elbow_flex_r	pro_sup_r	arm_flex_l	arm_add_l	arm_rot_l	elbow_flex_l	pro_sup_l
      0.33000000	      1.80861478	     -2.20220292	     -4.73163430	      0.26916500	      0.96367509	     -0.22753354	     -3.10563632	      7.64674729	      1.78736464	      5.79991836	      0.10122767	      8.31535323	     -6.74842321	     -6.37585829	     25.30710517	     -2.63700117	      0.36058216	     47.36234058	      0.82662878	     -2.15426479	    -17.73130443	     -6.37585829	     -6.26268340	      3.32842496	      6.35488677	      2.15969272	     -7.76156044	     -8.92482277	     39.70800777	    112.44859371	     -4.52790754	     -5.31960912	      1.36767879	     16.19066028	    106.93557891
      0.34000000	      1.87815154	     -2.22262335	     -5.23663453	      0.28050159	      0.96334815	     -0.22612852	     -4.23183024	      7.59774643	      2.19351754	      5.34714103	      0.09332522	      9.01399222	     -6.15833706	     -6.39331587	     25.47958496	     -2.85168760	     -0.14294512	     43.76209237	      0.76379260	     -2.81009682	    -17.63359598	     -6.39331587	     -6.50963552	      3.32833951	      7.06127117	      2.77743158	     -8.05162429	     -8.81190273	     40.58976293	    112.45007807	     -5.19832539	     -5.49218105	      1.00051603	     16.16284809	    106.78461553
      0.35000000	      1.89989776	     -2.29421610	     -5.69346012	      0.29187071	      0.96266794	     -0.22495180	     -5.25631806	      7.56986777	      2.33815838	      5.00607092	      0.08737242	      9.89852859	     -5.02128581	     -6.44906303	     25.58658708	     -3.03806918	     -0.49574431	     39.97751312	      0.69773923	     -3.90838537	    -17.99805568	     -6.44906303	     -6.72065145	      3.41705252	      7.60159186	      3.42519756	     -8.34404522	     -8.72829210	     41.55647110	    112.32575477	     -6.02627429	     -5.55528341	     -0.21076526	     16.55994231	    106.40804021
      0.36000000	      1.67461508	     -2.39900989	     -6.20450937	      0.30321334	      0.96136481	     -0.22367374	     -6.00700058	      7.61320808	      2.86354894	      4.69347742	      0.08191663	     10.35491263	     -4.77872743	     -6.45982816	     25.90691329	     -3.35110166	     -0.92787991	     36.19450869	      0.63171335	     -4.42140073	    -17.11250625	     -6.45982816	     -6.58711571	      3.57245957	      8.14312083	      4.12439787	     -8.60396817	     -8.59316783	     42.18520934	    112.34451486	     -6.79383592	     -5.68949234	     -0.48222918	     16.50829141	    106.33456190
      0.37000000	      1.67985871	     -2.49286324	     -6.73958276	      0.31471883	      0.96020254	     -0.22242862	     -7.10791274	      7.59039762	      3.43341709	      4.21437090	      0.07355465	     10.95475602	     -4.43536896	     -6.47272256	     25.80337260	     -3.64064461	     -1.49991171	     32.21880698	      0.56232426	     -5.00654372	    -16.10434916	     -6.47272256	     -6.75677088	      3.67829041	      8.76599998	      4.79187848	     -8.91360287	     -8.36395815	     42.88762364	    112.36057046	     -7.52040077	     -5.79213455	     -0.91340975	     16.61557624	    106.22837824
      0.38000000	      1.80842708	     -2.66226764	     -7.21997416	      0.32641397	      0.95890304	     -0.22136198	     -8.35108703	      7.59677225	      3.61412406	      3.76465508	      0.06570563	     11.89760575	     -3.33439852	     -6.57410878	     25.48508902	     -3.95174630	     -2.05882056	     28.25628167	      0.49316515	     -5.28701624	    -14.90227630	     -6.57410878	     -7.09171024	      3.82508139	      8.97190631	      5.72334690	     -9.21269563	     -7.59223056	     43.44794293	    112.13253798	     -8.76768961	     -5.53632021	     -4.27515448	     18.02657574	    105.68962853
      0.39000000	      1.60986575	     -2.86980372	     -7.73230635	      0.33801213	      0.95693903	     -0.22035388	     -9.19026274	      7.68623053	      4.21812281	      3.42888325	      0.05984530	     12.33861409	     -3.15881708	     -6.58371748	     25.49505693	     -4.28759861	     -2.36726284	     24.39204372	      0.42572147	     -5.55719723	    -13.70633389	     -6.58371748	     -7.00692356	      4.11512593	      9.47435288	      6.41527839	     -9.47366082	     -7.41472308	     44.00384375	    112.16715473	     -9.50200840	     -5.56784936	     -4.45936186	     17.93814713	    105.69131647
      0.40000000	      1.81768443	     -3.04108917	     -8.22915630	      0.34994375	      0.95536367	     -0.21936193	    -10.60859255	      7.64861300	      4.68330378	      2.84645888	      0.04968008	     13.00323009	     -2.82156036	     -6.60216607	     24.94251907	     -4.56288110	     -2.98176120	     20.53554770	      0.35841292	     -5.53193281	    -12.14975365	     -6.60216607	     -7.39255376	      4.27299959	     10.01444379	      7.06472314	     -9.77882956	     -7.05189856	     44.63652833	    112.09485140	    -10.19464200	     -5.58056890	     -4.95053177	     18.06392047	    105.58347957
      0.41000000	      1.88156077	     -3.28129384	     -8.70136026	      0.36189477	      0.95337827	     -0.21853282	    -11.78398989	      7.68452994	      5.09087773	      2.46147251	      0.04296080	     13.60465062	     -2.33766728	     -6.62529435	     24.54598134	     -4.87096058	     -3.33883210	     16.92568024	      0.29540885	     -5.13803436	    -10.58585588	     -6.62529435	     -7.61470611	      4.55812655	     10.40548944	      7.76155264	    -10.03996239	     -6.67493119	     45.21869047	    112.05031566	    -10.96138995	     -5.50188532	     -5.69661080	     18.25902950	    105.44997839
      0.42000000	      1.87812404	     -3.52460828	     -9.12560913	      0.37392361	      0.95113704	     -0.21786631	    -12.85975180	      7.72114785	      5.41806720	      2.14328899	      0.03740745	     14.26351752	     -1.95099671	     -6.64441410	     24.20471346	     -5.14291569	     -3.43466333	     13.53325459	      0.23619985	     -4.69132654	     -9.26580312	     -6.64441410	     -7.75654662	      4.83955786	     10.77820876	      8.40428619	    -10.30347032	     -6.35055980	     45.69800346	    112.01570024	    -11.65223431	     -5.42218281	     -6.35531897	     18.39521151	    105.32330250
      0.43000000	      1.86292059	     -3.77982889	     -9.51865772	      0.38601142	      0.94877350	     -0.21729043	    -13.87971666	      7.76835110	      5.70583641	      1.92031147	      0.03351576	     14.88504530	     -1.57298359	     -6.66135215	     23.86551570	     -5.41585744	     -3.40390388	     10.40312668	      0.18156881	     -4.12655996	     -8.22017428	     -6.66135215	     -7.89508254	      5.15501942	     11.09642910	      9.01560280	    -10.51623852	     -6.03799443	     46.13075931	    111.99951182	    -12.27452140	     -5.31711399	     -6.95041734	     18.48658811	    105.20973038
      0.44000000	      1.75984248	     -4.04687586	     -9.89171914	      0.39815318	      0.94621188	     -0.21679552	    -14.73289315	      7.83428111	      6.01558545	      1.84189009	      0.03214705	     15.41346929	     -1.27425100	     -6.67346109	     23.64390789	     -5.71082000	     -3.26117945	      7.63225346	      0.13320795	     -3.50497684	     -7.50146941	     -6.67346109	     -7.90863792	      5.49411087	     11.37357003	      9.58772334	    -10.70110235	     -5.81086487	     46.51938272	    111.97378955	    -12.86146610	     -5.23868570	     -7.37351112	     18.46962220	    105.10937895
      0.45000000	      1.73199267	     -4.26432357	    -10.21660948	      0.41043589	      0.94373016	     -0.21638016	    -15.63747436	      7.83510852	      6.25565650	      1.81231638	      0.03163089	     15.95002343	     -1.03326201	     -6.68476058	     23.36277245	     -5.93944284	     -3.14703078	      5.24630274	      0.09156526	     -2.85969467	     -6.99676725	     -6.68476058	     -8.00654736	      5.75330955	     11.61381553	     10.11089504	    -10.85746613	     -5.57420777	     46.86640226	    111.97247842	    -13.33638212	     -5.16694233	     -7.77349169	     18.41670761	    105.01966588
      0.46000000	      1.81726634	     -4.41411944	    -10.46944854	      0.42284650	      0.94139386	     -0.21606216	    -16.61607081	      7.74116979	      6.24361926	      1.84318833	      0.03216971	     16.54002509	     -0.51174266	     -6.71961523	     23.06473630	     -6.06405024	     -3.26594435	      3.40195022	      0.05937523	     -2.26214151	     -6.72159631	     -6.71961523	     -8.22554700	      5.88592651	     11.67645472	     10.67692825	    -10.97117867	     -5.06622047	     47.09845305	    112.08079425	    -13.80289682	     -5.02595878	     -8.82573138	     18.56434352	    104.93179050
      0.47000000	      1.63834385	     -4.56682550	    -10.70455213	      0.43525056	      0.93872139	     -0.21579164	    -17.21549117	      7.71844127	      6.45744405	      2.06143591	      0.03597884	     16.93913901	     -0.54527875	     -6.72809844	     23.19915885	     -6.23063853	     -3.28083795	      2.24128983	      0.03911789	     -1.63439463	     -6.69326539	     -6.72809844	     -8.13191200	      6.08047122	     11.83768205	     11.06070817	    -11.02570871	     -5.00951142	     47.31406499	    112.04050256	    -14.12573126	     -5.01172757	     -9.03051486	     18.41343498	    104.87530400
      0.48000000	      1.60752011	     -4.63250652	    -10.88532355	      0.44785262	      0.93633652	     -0.21557702	    -17.95004243	      7.58125641	      6.61798600	      2.29887720	      0.04012298	     17.33253236	     -0.63038460	     -6.74174863	     23.27080564	     -6.26023400	     -3.50152439	      1.67185926	      0.02917945	     -1.07879548	     -6.81165697	     -6.74174863	     -8.16525072	      6.12584779	     11.96321578	     11.34390304	    -11.05739663	     -4.89254415	     47.52936617	    112.04088466	    -14.30241297	     -5.01929051	     -9.34229901	     18.17641603	    104.81366943
